# File created by Blade
# Date/Time:  Mon Nov 18 17:26:10 2013
# Frame Rate: 100.000 fps
#------------------------------------------------------
:FULLY-SPECIFIED
:DEGREES
113
root -37.238437 -2.893520 38.458969 12.062156 -5.889882 19.726091
Spine 22.288639 -3.280738 2.016603
Spine1 8.196345 -1.029006 4.012917
Spine2 -22.271943 -0.099487 -0.356500
NeckDummy -0.037043 0.184378 0.892511 14.041626 -0.438107 -0.499556
Neck 2.673121 -12.772195 40.141510
Head -0.352397 -0.070192 0.342807 -5.793185 -4.324071 -1.855799
LeftShoulderDummy -0.076989 0.195428 0.905053 14.023263 -0.581799 -0.312185
LeftShoulder 5.768578 -6.695512 15.956892
LeftArm 14.691581 37.491347 22.537473
LeftForeArm 44.599764
LeftForeArmRoll 26.028351
LeftHand -33.507923 -22.577036 12.750495
LeftHandThumb1 13.449011 3.061875
LeftHandIndex1 0.460942 39.111704
LeftHandPinky1 0.973218 57.056541
RightShoulderDummy -0.027583 0.215937 0.867443 13.996780 0.420222 0.588018
RightShoulder 11.144239 1.513267 11.806697
RightArm 2.692735 67.309166 25.668019
RightForeArm 101.023966
RightForeArmRoll 29.604335
RightHand -44.860607 -20.057485 6.664736
RightHandThumb1 9.286588 4.815768
RightHandIndex1 7.366084 29.675039
RightHandPinky1 -11.547000 28.595776
LeftUpLeg -8.581949 24.144059 -49.564616
LeftLeg 46.626126
LeftFoot 0.027685 -0.640855 -1.513157 -22.037748 17.122097 -4.778532
LeftToeBase -0.333144
RightUpLeg -6.970235 19.043804 -33.938037
RightLeg 39.940104
RightFoot -0.366301 0.845306 0.450176 -16.664182 9.699777 -13.490229
RightToeBase -4.271236
114
root -37.206361 -2.874306 38.390998 12.152630 -6.222963 19.742772
Spine 22.384851 -3.373680 2.040628
Spine1 8.224384 -1.054151 4.037998
Spine2 -22.328375 -0.016313 -0.227129
NeckDummy -0.034183 0.181230 0.895921 14.046537 -0.539830 -0.325578
Neck 2.739981 -12.911720 40.325932
Head -0.346250 -0.068463 0.353189 -5.921500 -4.243668 -1.870858
LeftShoulderDummy -0.075107 0.195766 0.910466 14.027587 -0.686489 -0.137773
LeftShoulder 5.558808 -6.619903 15.682793
LeftArm 15.095206 37.103590 22.786062
LeftForeArm 44.501242
LeftForeArmRoll 26.143724
LeftHand -33.605708 -22.676773 13.037766
LeftHandThumb1 13.239362 3.782711
LeftHandIndex1 0.489945 39.543865
LeftHandPinky1 1.435371 57.763732
RightShoulderDummy -0.023926 0.209633 0.868850 14.001521 0.519331 0.417662
RightShoulder 11.038670 1.668531 11.509471
RightArm 2.980145 67.563839 26.459842
RightForeArm 101.134150
RightForeArmRoll 29.603727
RightHand -44.812225 -20.172558 6.548154
RightHandThumb1 9.420525 4.183608
RightHandIndex1 6.979690 29.944972
RightHandPinky1 -11.668356 28.463159
LeftUpLeg -8.779567 24.317233 -49.829150
LeftLeg 46.626193
LeftFoot 0.025218 -0.633015 -1.514056 -21.938224 17.151189 -4.736415
LeftToeBase -0.350752
RightUpLeg -6.236620 18.933848 -34.139549
RightLeg 40.332130
RightFoot -0.372714 0.851530 0.429588 -17.638285 10.058248 -13.398593
RightToeBase -3.853094
115
root -37.176523 -2.856317 38.327421 12.233284 -6.519263 19.777276
Spine 22.439414 -3.435333 2.066066
Spine1 8.253929 -1.072305 4.088763
Spine2 -22.341336 0.040734 -0.139933
NeckDummy -0.031630 0.177367 0.895649 14.052602 -0.611495 -0.187552
Neck 2.810682 -12.988191 40.478727
Head -0.346843 -0.065388 0.364655 -6.097635 -4.287669 -1.844656
LeftShoulderDummy -0.073830 0.194707 0.911308 14.032670 -0.759922 -0.000253
LeftShoulder 5.291215 -6.504734 15.319531
LeftArm 15.487338 36.788588 22.949489
LeftForeArm 44.449056
LeftForeArmRoll 26.054946
LeftHand -33.669376 -23.023322 13.449726
LeftHandThumb1 13.469627 4.065132
LeftHandIndex1 0.574817 40.136244
LeftHandPinky1 1.536492 58.882926
RightShoulderDummy -0.021072 0.203568 0.866771 14.006756 0.591424 0.283629
RightShoulder 10.922248 1.853264 11.247109
RightArm 3.478698 67.881272 27.438986
RightForeArm 101.220856
RightForeArmRoll 29.320963
RightHand -44.824756 -20.396039 6.269640
RightHandThumb1 9.809366 3.951188
RightHandIndex1 6.751812 29.936023
RightHandPinky1 -11.437211 29.239859
LeftUpLeg -9.083363 24.404195 -50.076320
LeftLeg 46.641553
LeftFoot 0.018788 -0.630203 -1.515437 -21.866069 17.255355 -4.722109
LeftToeBase -0.369952
RightUpLeg -5.457747 18.860511 -34.321206
RightLeg 40.796000
RightFoot -0.366885 0.884626 0.450485 -17.511744 9.914082 -13.095892
RightToeBase -4.487012
116
root -37.159089 -2.839842 38.267194 12.320505 -6.775068 19.818190
Spine 22.478641 -3.514860 2.090152
Spine1 8.270466 -1.093731 4.131183
Spine2 -22.340656 0.064124 -0.053449
NeckDummy -0.031290 0.172939 0.895433 14.048500 -0.685621 -0.052765
Neck 2.856084 -13.098214 40.561001
Head -0.341461 -0.059130 0.377483 -6.257890 -4.213924 -1.856573
LeftShoulderDummy -0.073450 0.193048 0.912272 14.027900 -0.834070 0.139239
LeftShoulder 4.983234 -6.396304 14.950018
LeftArm 15.885839 36.491838 22.989260
LeftForeArm 44.568598
LeftForeArmRoll 25.697801
LeftHand -33.665761 -23.386959 13.683475
LeftHandThumb1 13.480193 3.737833
LeftHandIndex1 0.316510 40.528925
LeftHandPinky1 1.705310 59.628787
RightShoulderDummy -0.020252 0.196442 0.864988 14.002509 0.665507 0.144715
RightShoulder 10.700419 2.058526 11.025860
RightArm 3.928842 68.218387 28.440344
RightForeArm 101.305151
RightForeArmRoll 29.075648
RightHand -44.927966 -20.910295 6.085535
RightHandThumb1 10.230545 3.493368
RightHandIndex1 6.428893 29.804893
RightHandPinky1 -10.848915 31.475616
LeftUpLeg -9.346260 24.472670 -50.287673
LeftLeg 46.593432
LeftFoot 0.018606 -0.624306 -1.517208 -21.796651 17.321562 -4.700595
LeftToeBase -0.360581
RightUpLeg -4.785530 18.782662 -34.538073
RightLeg 41.376290
RightFoot -0.377460 0.897820 0.453904 -17.870891 9.534005 -13.061444
RightToeBase -4.382527
117
root -37.150784 -2.821752 38.216307 12.357254 -7.035590 19.824175
Spine 22.510205 -3.622620 2.163899
Spine1 8.299866 -1.124151 4.270659
Spine2 -22.327477 0.200867 -0.056090
NeckDummy -0.025470 0.169876 0.892923 14.053748 -0.661546 -0.101469
Neck 2.809266 -13.035664 40.648015
Head -0.344868 -0.059504 0.389984 -6.411536 -4.232407 -1.895875
LeftShoulderDummy -0.068561 0.189202 0.909694 14.032884 -0.813943 0.081819
LeftShoulder 4.765657 -6.170591 14.641273
LeftArm 16.559931 36.132630 23.258717
LeftForeArm 44.655312
LeftForeArmRoll 25.194392
LeftHand -33.696278 -23.720660 13.868244
LeftHandThumb1 13.155657 4.364971
LeftHandIndex1 0.297062 40.965848
LeftHandPinky1 1.793099 60.520236
RightShoulderDummy -0.014960 0.195016 0.862610 14.005846 0.642548 0.194990
RightShoulder 10.561800 2.080139 10.785155
RightArm 4.533253 68.473250 29.492297
RightForeArm 101.373083
RightForeArmRoll 28.755465
RightHand -45.048538 -21.538464 6.006875
RightHandThumb1 10.774675 3.138478
RightHandIndex1 6.086918 29.718918
RightHandPinky1 -9.521190 34.868301
LeftUpLeg -9.650078 24.563730 -50.445819
LeftLeg 46.587498
LeftFoot 0.014238 -0.625221 -1.513114 -21.766782 17.462221 -4.686549
LeftToeBase -0.375261
RightUpLeg -4.284849 18.612317 -34.680792
RightLeg 41.958656
RightFoot -0.402467 0.899883 0.459698 -18.724368 9.042659 -13.086494
RightToeBase -3.787470
